<svg xmlns="http://www.w3.org/2000/svg" width="16" height="17" viewBox="0 0 16 17" fill="none">
  <g clip-path="url(#clip0_292_21224)">
    <path d="M10.0336 3.83366C10.6848 3.9607 11.2832 4.27916 11.7523 4.74828C12.2214 5.2174 12.5399 5.81584 12.6669 6.46699M10.0336 1.16699C11.3865 1.31728 12.648 1.92311 13.6111 2.885C14.5742 3.84689 15.1816 5.10766 15.3336 6.46032M14.6669 11.7803V13.7803C14.6677 13.966 14.6297 14.1498 14.5553 14.3199C14.4809 14.49 14.3718 14.6427 14.235 14.7682C14.0982 14.8938 13.9367 14.9893 13.7608 15.0488C13.5849 15.1083 13.3985 15.1304 13.2136 15.1137C11.1622 14.8908 9.19161 14.1898 7.46028 13.067C5.8495 12.0434 4.48384 10.6778 3.46028 9.06699C2.3336 7.32779 1.63244 5.34765 1.41361 3.28699C1.39695 3.10264 1.41886 2.91683 1.47795 2.74141C1.53703 2.56598 1.63199 2.40478 1.75679 2.26807C1.88159 2.13136 2.03348 2.02213 2.20281 1.94734C2.37213 1.87255 2.55517 1.83383 2.74028 1.83366H4.74028C5.06382 1.83047 5.37748 1.94504 5.62279 2.15601C5.8681 2.36698 6.02833 2.65996 6.07361 2.98033C6.15803 3.62037 6.31458 4.24881 6.54028 4.85366C6.62998 5.09227 6.64939 5.3516 6.59622 5.60091C6.54305 5.85022 6.41952 6.07907 6.24028 6.26033L5.39361 7.10699C6.34265 8.77602 7.72458 10.158 9.39361 11.107L10.2403 10.2603C10.4215 10.0811 10.6504 9.95756 10.8997 9.90439C11.149 9.85122 11.4083 9.87063 11.6469 9.96032C12.2518 10.186 12.8802 10.3426 13.5203 10.427C13.8441 10.4727 14.1399 10.6358 14.3513 10.8853C14.5627 11.1348 14.6751 11.4534 14.6669 11.7803Z" stroke="#03180D" stroke-opacity="0.8" stroke-width="1.33333" stroke-linecap="round" stroke-linejoin="round"/>
    <path d="M10.0336 3.83366C10.6848 3.9607 11.2832 4.27916 11.7523 4.74828C12.2214 5.2174 12.5399 5.81584 12.6669 6.46699M10.0336 1.16699C11.3865 1.31728 12.648 1.92311 13.6111 2.885C14.5742 3.84689 15.1816 5.10766 15.3336 6.46032M14.6669 11.7803V13.7803C14.6677 13.966 14.6297 14.1498 14.5553 14.3199C14.4809 14.49 14.3718 14.6427 14.235 14.7682C14.0982 14.8938 13.9367 14.9893 13.7608 15.0488C13.5849 15.1083 13.3985 15.1304 13.2136 15.1137C11.1622 14.8908 9.19161 14.1898 7.46028 13.067C5.8495 12.0434 4.48384 10.6778 3.46028 9.06699C2.3336 7.32779 1.63244 5.34765 1.41361 3.28699C1.39695 3.10264 1.41886 2.91683 1.47795 2.74141C1.53703 2.56598 1.63199 2.40478 1.75679 2.26807C1.88159 2.13136 2.03348 2.02213 2.20281 1.94734C2.37213 1.87255 2.55517 1.83383 2.74028 1.83366H4.74028C5.06382 1.83047 5.37748 1.94504 5.62279 2.15601C5.8681 2.36698 6.02833 2.65996 6.07361 2.98033C6.15803 3.62037 6.31458 4.24881 6.54028 4.85366C6.62998 5.09227 6.64939 5.3516 6.59622 5.60091C6.54305 5.85022 6.41952 6.07907 6.24028 6.26033L5.39361 7.10699C6.34265 8.77602 7.72458 10.158 9.39361 11.107L10.2403 10.2603C10.4215 10.0811 10.6504 9.95756 10.8997 9.90439C11.149 9.85122 11.4083 9.87063 11.6469 9.96032C12.2518 10.186 12.8802 10.3426 13.5203 10.427C13.8441 10.4727 14.1399 10.6358 14.3513 10.8853C14.5627 11.1348 14.6751 11.4534 14.6669 11.7803Z" stroke="#03180D" stroke-opacity="0.8" stroke-width="1.33333" stroke-linecap="round" stroke-linejoin="round"/>
    <path d="M10.0336 3.83366C10.6848 3.9607 11.2832 4.27916 11.7523 4.74828C12.2214 5.2174 12.5399 5.81584 12.6669 6.46699M10.0336 1.16699C11.3865 1.31728 12.648 1.92311 13.6111 2.885C14.5742 3.84689 15.1816 5.10766 15.3336 6.46032M14.6669 11.7803V13.7803C14.6677 13.966 14.6297 14.1498 14.5553 14.3199C14.4809 14.49 14.3718 14.6427 14.235 14.7682C14.0982 14.8938 13.9367 14.9893 13.7608 15.0488C13.5849 15.1083 13.3985 15.1304 13.2136 15.1137C11.1622 14.8908 9.19161 14.1898 7.46028 13.067C5.8495 12.0434 4.48384 10.6778 3.46028 9.06699C2.3336 7.32779 1.63244 5.34765 1.41361 3.28699C1.39695 3.10264 1.41886 2.91683 1.47795 2.74141C1.53703 2.56598 1.63199 2.40478 1.75679 2.26807C1.88159 2.13136 2.03348 2.02213 2.20281 1.94734C2.37213 1.87255 2.55517 1.83383 2.74028 1.83366H4.74028C5.06382 1.83047 5.37748 1.94504 5.62279 2.15601C5.8681 2.36698 6.02833 2.65996 6.07361 2.98033C6.15803 3.62037 6.31458 4.24881 6.54028 4.85366C6.62998 5.09227 6.64939 5.3516 6.59622 5.60091C6.54305 5.85022 6.41952 6.07907 6.24028 6.26033L5.39361 7.10699C6.34265 8.77602 7.72458 10.158 9.39361 11.107L10.2403 10.2603C10.4215 10.0811 10.6504 9.95756 10.8997 9.90439C11.149 9.85122 11.4083 9.87063 11.6469 9.96032C12.2518 10.186 12.8802 10.3426 13.5203 10.427C13.8441 10.4727 14.1399 10.6358 14.3513 10.8853C14.5627 11.1348 14.6751 11.4534 14.6669 11.7803Z" stroke="#03180D" stroke-opacity="0.8" stroke-width="1.33333" stroke-linecap="round" stroke-linejoin="round"/>
  </g>
  <defs>
    <clipPath id="clip0_292_21224">
      <rect width="16" height="16" fill="white" transform="translate(0 0.5)"/>
    </clipPath>
  </defs>
</svg>